<svg xmlns="http://www.w3.org/2000/svg" version="1.1" xmlns:xlink="http://www.w3.org/1999/xlink" xmlns:svgjs="http://svgjs.com/svgjs" width="1440" height="560" preserveAspectRatio="none" viewBox="0 0 1440 560"><g mask="url(&quot;#SvgjsMask1002&quot;)" fill="none"><path d="M -531.9601638157275,321 C -435.96,306.6 -243.96,214 -51.96016381572747,249 C 140.04,284 236.04,522.2 428.03983618427253,496 C 620.04,469.8 716.04,122 908.0398361842725,118 C 1100.04,114 1281.65,459.8 1388.0398361842726,476 C 1494.43,492.2 1429.61,254.4 1440,199" stroke="rgba(51, 121, 194, 0.58)" stroke-width="2"></path><path d="M -826.4196003563941,298 C -730.42,271.6 -538.42,148.4 -346.41960035639414,166 C -154.42,183.6 -58.42,401.6 133.58039964360586,386 C 325.58,370.4 421.58,85.8 613.5803996436059,88 C 805.58,90.2 928.3,383 1093.580399643606,397 C 1258.86,411 1370.72,205.8 1440,158" stroke="rgba(224, 231, 5, 1)" stroke-width="2"></path><path d="M -758.9166821387657,156 C -662.92,186.4 -470.92,326.8 -278.91668213876574,308 C -86.92,289.2 9.08,48.4 201.08331786123426,62 C 393.08,75.6 489.08,339.8 681.0833178612343,376 C 873.08,412.2 1009.3,232.6 1161.0833178612343,243 C 1312.87,253.4 1384.22,391 1440,428" stroke="rgba(224, 231, 5, 1)" stroke-width="2"></path><path d="M -168.81500140843337,151 C -72.82,185.2 119.18,323.6 311.1849985915666,322 C 503.18,320.4 599.18,127.2 791.1849985915667,143 C 983.18,158.8 1079.18,409.8 1271.1849985915667,401 C 1463.18,392.2 1717.42,113.2 1751.1849985915667,99 C 1784.95,84.8 1502.24,283.8 1440,330" stroke="rgba(51, 121, 194, 0.58)" stroke-width="2"></path></g><defs><mask id="SvgjsMask1002"><rect width="1440" height="560" fill="#ffffff"></rect></mask></defs></svg>