<svg xmlns="http://www.w3.org/2000/svg" version="1.1" xmlns:xlink="http://www.w3.org/1999/xlink" xmlns:svgjs="http://svgjs.com/svgjs" width="1440" height="560" preserveAspectRatio="none" viewBox="0 0 1440 560"><g mask="url(&quot;#SvgjsMask1134&quot;)" fill="none"><path d="M -23.40459296930885,134 C 24.6,195.6 120.6,436.8 216.59540703069115,442 C 312.6,447.2 360.6,182.8 456.59540703069115,160 C 552.6,137.2 600.6,333.2 696.5954070306911,328 C 792.6,322.8 840.6,104.4 936.5954070306911,134 C 1032.6,163.6 1080.6,462.8 1176.5954070306911,476 C 1272.6,489.2 1320.6,233 1416.5954070306911,200 C 1512.6,167 1651.91,302.6 1656.5954070306911,311 C 1661.28,319.4 1483.32,255.8 1440,242" stroke="rgba(51, 121, 194, 0.58)" stroke-width="2"></path><path d="M -318.20517526407235,391 C -270.21,350 -174.21,173.2 -78.20517526407235,186 C 17.79,198.8 65.79,453 161.79482473592765,455 C 257.79,457 305.79,204.4 401.79482473592765,196 C 497.79,187.6 545.79,415.2 641.7948247359277,413 C 737.79,410.8 785.79,191.6 881.7948247359277,185 C 977.79,178.4 1025.79,367.2 1121.7948247359277,380 C 1217.79,392.8 1298.15,266.4 1361.7948247359277,249 C 1425.44,231.6 1424.36,284.2 1440,293" stroke="rgba(107, 239, 95, 1)" stroke-width="2"></path><path d="M -258.1263557219682,379 C -210.13,331.8 -114.13,133.8 -18.126355721968217,143 C 77.87,152.2 125.87,431.6 221.87364427803178,425 C 317.87,418.4 365.87,125.8 461.8736442780318,110 C 557.87,94.2 605.87,332.4 701.8736442780317,346 C 797.87,359.6 845.87,157.6 941.8736442780317,178 C 1037.87,198.4 1085.87,459.2 1181.8736442780319,448 C 1277.87,436.8 1370.25,128.6 1421.8736442780319,122 C 1473.5,115.4 1436.37,356.4 1440,415" stroke="rgba(51, 121, 194, 0.58)" stroke-width="2"></path><path d="M -307.1648410504376,145 C -259.16,177.8 -163.16,293.2 -67.1648410504376,309 C 28.84,324.8 76.84,221.8 172.8351589495624,224 C 268.84,226.2 316.84,341.8 412.8351589495624,320 C 508.84,298.2 556.84,94.6 652.8351589495624,115 C 748.84,135.4 796.84,398.8 892.8351589495624,422 C 988.84,445.2 1036.84,254.4 1132.8351589495624,231 C 1228.84,207.6 1311.4,320.8 1372.8351589495624,305 C 1434.27,289.2 1426.57,182.6 1440,152" stroke="rgba(107, 239, 95, 1)" stroke-width="2"></path></g><defs><mask id="SvgjsMask1134"><rect width="1440" height="560" fill="#ffffff"></rect></mask></defs></svg>