<svg xmlns="http://www.w3.org/2000/svg" version="1.1" xmlns:xlink="http://www.w3.org/1999/xlink" xmlns:svgjs="http://svgjs.com/svgjs" width="1440" height="560" preserveAspectRatio="none" viewBox="0 0 1440 560"><g mask="url(&quot;#SvgjsMask1109&quot;)" fill="none"><path d="M -271.4022174628406,259 C -223.4,266.4 -127.4,301.4 -31.402217462840607,296 C 64.6,290.6 112.6,218.6 208.5977825371594,232 C 304.6,245.4 352.6,358.6 448.5977825371594,363 C 544.6,367.4 592.6,268.8 688.5977825371594,254 C 784.6,239.2 832.6,296.6 928.5977825371594,289 C 1024.6,281.4 1072.6,201.2 1168.5977825371594,216 C 1264.6,230.8 1354.32,358.6 1408.5977825371594,363 C 1462.88,367.4 1433.72,263 1440,238" stroke="rgba(51, 121, 194, 0.58)" stroke-width="2"></path><path d="M -166.65029286751076,190 C -118.65,229.2 -22.65,379.6 73.34970713248923,386 C 169.35,392.4 217.35,225.6 313.34970713248924,222 C 409.35,218.4 457.35,372 553.3497071324892,368 C 649.35,364 697.35,197.8 793.3497071324892,202 C 889.35,206.2 937.35,392.8 1033.3497071324891,389 C 1129.35,385.2 1177.35,190.2 1273.3497071324891,183 C 1369.35,175.8 1480.02,337.2 1513.3497071324891,353 C 1546.68,368.8 1454.67,280.2 1440,262" stroke="rgba(107, 239, 95, 1)" stroke-width="2"></path><path d="M -72.69106540723033,187 C -24.69,223.4 71.31,373.8 167.30893459276967,369 C 263.31,364.2 311.31,159.6 407.3089345927697,163 C 503.31,166.4 551.31,376.4 647.3089345927697,386 C 743.31,395.6 791.31,218.4 887.3089345927697,211 C 983.31,203.6 1031.31,350.8 1127.3089345927697,349 C 1223.31,347.2 1271.31,195.4 1367.3089345927697,202 C 1463.31,208.6 1592.77,376.8 1607.3089345927697,382 C 1621.85,387.2 1473.46,258.8 1440,228" stroke="rgba(107, 239, 95, 1)" stroke-width="2"></path></g><defs><mask id="SvgjsMask1109"><rect width="1440" height="560" fill="#ffffff"></rect></mask></defs></svg>