<svg xmlns="http://www.w3.org/2000/svg" version="1.1" xmlns:xlink="http://www.w3.org/1999/xlink" xmlns:svgjs="http://svgjs.com/svgjs" width="1440" height="560" preserveAspectRatio="none" viewBox="0 0 1440 560"><g mask="url(&quot;#SvgjsMask1034&quot;)" fill="none"><path d="M509.17 566.12C680.05 553.68 774.33 233.21 1100.51 219.74 1426.7 206.27 1535.24 15.51 1691.86 12.54" stroke="rgba(51,121,194,0.58)" stroke-width="2"></path><path d="M427.61 605.22C532.25 601.83 618.75 441.04 812.78 440.86 1006.8 440.68 1005.36 510.86 1197.94 510.86 1390.53 510.86 1485.24 441.14 1583.11 440.86" stroke="rgba(51,121,194,0.58)" stroke-width="2"></path><path d="M610.88 595.46C700.85 594.6 683.58 504.71 957.92 500.17 1232.26 495.63 1467.44 252.03 1652 248.17" stroke="rgba(51,121,194,0.58)" stroke-width="2"></path><path d="M526.3 635.35C641.06 620.5 588.02 371.73 896.6 357.61 1205.18 343.49 1440.75 98.28 1637.21 94.41" stroke="rgba(51,121,194,0.58)" stroke-width="2"></path><path d="M601 653.64C755.5 639.85 858.85 320.66 1124.12 320.04 1389.39 319.42 1510.72 475.17 1647.24 476.84" stroke="rgba(51,121,194,0.58)" stroke-width="2"></path></g><defs><mask id="SvgjsMask1034"><rect width="1440" height="560" fill="#ffffff"></rect></mask></defs></svg>