<svg xmlns="http://www.w3.org/2000/svg" version="1.1" xmlns:xlink="http://www.w3.org/1999/xlink" xmlns:svgjs="http://svgjs.com/svgjs" width="1440" height="560" preserveAspectRatio="none" viewBox="0 0 1440 560"><g mask="url(&quot;#SvgjsMask1001&quot;)" fill="none"><path d="M -163.9453210922431,271 C -67.95,305.2 124.05,474.4 316.0546789077569,442 C 508.05,409.6 604.05,124.2 796.0546789077569,109 C 988.05,93.8 1084.05,369.4 1276.0546789077569,366 C 1468.05,362.6 1723.27,103 1756.0546789077569,92 C 1788.84,81 1503.21,267.2 1440,311" stroke="rgba(51, 121, 194, 0.58)" stroke-width="2"></path><path d="M -352.51185552820226,98 C -256.51,145 -64.51,312.8 127.48814447179775,333 C 319.49,353.2 415.49,166.8 607.4881444717978,199 C 799.49,231.2 895.49,498.4 1087.4881444717978,494 C 1279.49,489.6 1496.99,178 1567.4881444717978,177 C 1637.99,176 1465.5,426.6 1440,489" stroke="rgba(51, 121, 194, 0.58)" stroke-width="2"></path><path d="M -147.8170342059438,221 C -51.82,268.2 140.18,468.6 332.1829657940562,457 C 524.18,445.4 620.18,167.4 812.1829657940561,163 C 1004.18,158.6 1100.18,435.4 1292.1829657940561,435 C 1484.18,434.6 1742.62,180.2 1772.1829657940561,161 C 1801.75,141.8 1506.44,303.4 1440,339" stroke="rgba(51, 121, 194, 0.58)" stroke-width="2"></path><path d="M -639.9364807027599,162 C -543.94,219.8 -351.94,439.2 -159.93648070275992,451 C 32.06,462.8 128.06,225 320.0635192972401,221 C 512.06,217 608.06,425.4 800.0635192972401,431 C 992.06,436.6 1152.08,264 1280.06351929724,249 C 1408.05,234 1408.01,334.6 1440,356" stroke="rgba(51, 121, 194, 0.58)" stroke-width="2"></path></g><defs><mask id="SvgjsMask1001"><rect width="1440" height="560" fill="#ffffff"></rect></mask></defs></svg>